# xmcd CD database file generated by Grip 3.2.0
# 
# Track frame offsets:
#       150
#       20912
#       41385
#       61880
#       82830
#       104182
#       123667
#       150640
#       170497
#       193145
# 
# Disc length: 2809 seconds
# 
# Revision: 4
# Processed by: cddbd v1.5.2PL0 Copyright (c) Steve Scherf et al.
# Submitted via: Grip 3.2.0
# 
DISCID=860af70a
DTITLE=Holy Cole Trio - Girl Talk
DYEAR=1994
DGENRE=Jazz
TTITLE0=My Foolish Heart
TTITLE1=Girl Talk
TTITLE2=Talk To Me Baby
TTITLE3=Cruisin'
TTITLE4=Spring Can Really Hang You Up The Most
TTITLE5=My Baby Just Care For Me
TTITLE6=How Long Has This Been Going On
TTITLE7=I'm So Lonesome I Could Cry
TTITLE8=Melancoly Baby
TTITLE9=Downtown
EXTD=
EXTT0=
EXTT1=
EXTT2=
EXTT3=
EXTT4=
EXTT5=
EXTT6=
EXTT7=
EXTT8=
EXTT9=
PLAYORDER=
